<?xml version="1.0" standalone="no"?>
<!DOCTYPE svg PUBLIC "-//W3C//DTD SVG 20010904//EN"
 "http://www.w3.org/TR/2001/REC-SVG-20010904/DTD/svg10.dtd">
<svg version="1.0" xmlns="http://www.w3.org/2000/svg"
 width="500.000000pt" height="500.000000pt" viewBox="0 0 500.000000 500.000000"
 preserveAspectRatio="xMidYMid meet">
<metadata>
Created by potrace 1.11, written by Peter Selinger 2001-2013
</metadata>
<g transform="translate(0.000000,500.000000) scale(0.100000,-0.100000)"
fill="#000000" stroke="none">
<path d="M2499 4326 c-2 -2 -33 -7 -69 -10 -224 -23 -500 -121 -710 -252 -142
-88 -330 -251 -420 -364 -19 -24 -40 -48 -45 -54 -6 -6 -36 -49 -67 -96 -186
-281 -281 -572 -295 -900 -12 -300 45 -574 177 -845 49 -100 148 -266 170
-285 3 -3 21 -25 40 -50 96 -127 302 -306 464 -405 154 -92 394 -187 536 -210
19 -3 42 -8 50 -10 78 -22 334 -34 460 -21 131 13 178 21 280 46 449 112 836
397 1073 790 l45 74 -56 31 c-31 18 -102 55 -157 85 -55 29 -137 72 -182 96
-91 49 -93 50 -93 29 0 -31 -17 -12 -83 93 -88 139 -81 129 -159 251 -37 58
-86 138 -110 176 -23 39 -46 72 -50 73 -5 2 -8 7 -8 12 0 13 -191 310 -200
310 -10 0 -42 -49 -195 -292 -36 -59 -51 -75 -61 -67 -7 5 -50 72 -97 147 -47
75 -100 160 -118 189 -19 29 -61 95 -94 147 -33 53 -64 96 -70 96 -5 0 -41
-51 -80 -112 -38 -62 -107 -170 -152 -241 -46 -71 -83 -130 -83 -132 0 -2 -24
-40 -52 -84 -29 -44 -66 -104 -83 -132 -16 -28 -36 -57 -42 -64 -7 -8 -13 -18
-13 -23 0 -5 -6 -15 -14 -21 -8 -7 -22 -27 -31 -46 -9 -19 -20 -35 -24 -35 -5
0 -27 29 -50 65 -22 36 -45 65 -50 65 -5 0 -47 -60 -92 -132 -45 -73 -91 -146
-102 -161 l-19 -29 -19 43 c-31 68 -78 229 -90 307 -22 146 -17 314 15 478 19
99 91 271 157 374 42 65 131 174 174 211 16 15 46 42 65 59 107 97 329 207
495 245 264 60 557 31 803 -81 214 -98 378 -251 539 -503 3 -4 74 32 198 99
44 24 112 61 247 133 l36 20 -50 81 c-149 237 -359 447 -585 584 -159 96 -389
186 -553 216 -47 8 -98 18 -115 22 -32 6 -380 16 -386 10z m15 -1351 c31 -47
56 -87 56 -89 0 -3 17 -31 39 -63 60 -91 211 -333 211 -339 0 -3 -35 -60 -77
-127 -43 -67 -82 -130 -88 -139 -39 -66 -121 -188 -127 -188 -4 0 -14 15 -22
33 -9 17 -51 88 -96 155 -44 68 -80 128 -80 133 0 5 -4 9 -10 9 -5 0 -10 4
-10 9 0 6 -31 58 -70 118 -38 59 -70 114 -70 122 0 7 34 65 75 128 41 62 75
116 75 119 0 3 9 17 19 32 11 15 40 60 65 100 25 39 48 72 50 72 2 0 29 -38
60 -85z m690 -307 c59 -95 141 -225 182 -288 41 -63 77 -122 81 -130 4 -8 28
-47 55 -87 26 -40 48 -77 48 -82 0 -5 3 -11 8 -13 4 -1 27 -34 50 -72 l43 -69
-37 -56 c-52 -78 -215 -238 -299 -293 -224 -146 -456 -211 -725 -203 -210 5
-202 2 -270 108 l-58 90 46 71 c130 203 252 399 252 406 0 5 4 10 8 12 4 2 21
25 37 52 17 27 37 59 45 72 16 25 215 340 240 379 114 182 174 275 179 275 4
0 55 -78 115 -172z m-969 -233 c143 -221 275 -435 275 -442 0 -5 -11 -24 -24
-42 l-25 -33 -27 44 c-15 23 -41 66 -59 93 -194 305 -275 436 -275 445 0 6 10
26 22 44 l23 35 19 -32 c11 -18 43 -68 71 -112z m-103 -52 c20 -32 99 -157
175 -277 l140 -220 -24 -35 c-13 -20 -25 -37 -27 -38 -2 -2 -38 52 -80 119
-43 68 -113 179 -157 248 -44 69 -91 144 -105 167 l-26 42 23 41 c26 46 20 50
81 -47z m-85 -80 c20 -32 42 -67 48 -78 7 -11 29 -47 51 -80 21 -33 43 -68 49
-78 5 -9 47 -76 93 -147 45 -72 82 -138 82 -148 -1 -9 -11 -30 -24 -46 -23
-28 -24 -28 -31 -7 -3 11 -11 21 -16 21 -5 0 -9 5 -9 11 0 5 -17 36 -37 67
-21 32 -43 66 -50 77 -6 11 -56 89 -110 173 -143 223 -136 207 -110 253 12 22
23 39 24 39 1 0 19 -26 40 -57z m-216 -70 c2 -5 49 -80 104 -167 55 -86 118
-186 140 -221 22 -36 93 -148 157 -251 l118 -186 -33 6 c-50 9 -185 63 -257
103 -121 67 -256 178 -346 288 -63 76 -126 178 -121 196 4 15 110 189 164 271
l25 37 23 -33 c12 -18 24 -37 26 -43z m269 -234 c74 -118 137 -216 140 -219 3
-3 11 -16 19 -30 8 -14 22 -38 32 -55 17 -29 17 -31 -5 -63 l-23 -32 -69 110
c-100 161 -161 257 -233 370 l-64 101 19 35 c18 34 20 34 35 16 8 -11 76 -116
149 -233z"/>
</g>
</svg>
